<svg height="479pt" viewBox="1 0 479 479.99829" width="479pt" xmlns="http://www.w3.org/2000/svg" xmlns:xlink="http://www.w3.org/1999/xlink"><linearGradient id="a"><stop offset="0" stop-color="#20d6de"/><stop offset="1" stop-color="#5e309d"/></linearGradient><linearGradient id="b" gradientUnits="userSpaceOnUse" x1="-7.502563" x2="502.809437" xlink:href="#a" y1="160" y2="160"/><linearGradient id="c" gradientUnits="userSpaceOnUse" x1="-7.502563" x2="502.809437" xlink:href="#a" y1="161.448" y2="161.448"/><linearGradient id="d" gradientUnits="userSpaceOnUse" x1="-7.502563" x2="502.809437" xlink:href="#a" y1="324" y2="324"/><linearGradient id="e" gradientUnits="userSpaceOnUse" x1="-7.502563" x2="502.809437" xlink:href="#a" y1="120" y2="120"/><path d="m192.496094 0v48h-40v48h30.5625l-14.449219 86.679688c-.28125 1.667968-.027344 3.382812.726563 4.894531l64 128c1.355468 2.71875 4.128906 4.433593 7.160156 4.433593 3.035156 0 5.808594-1.714843 7.160156-4.433593l64-128c.753906-1.511719 1.011719-3.226563.730469-4.894531l-14.449219-86.679688h30.558594v-48h-40v-48zm16 16h64v32h-64zm87.679687 166.753906-47.679687 95.359375v-94.113281h-16v94.113281l-47.679688-95.359375 14.457032-86.753906h82.449218zm16.320313-118.753906v16h-144v-16zm0 0" fill="url(#b)"/><path d="m258.839844 173.65625 11.3125-11.3125c-7.648438-8.257812-18.398438-12.953125-29.65625-12.953125-11.257813 0-22.003906 4.695313-29.65625 12.953125l11.3125 11.3125c4.699218-5.167969 11.359375-8.109375 18.34375-8.109375s13.644531 2.941406 18.34375 8.109375zm0 0" fill="url(#c)"/><path d="m430.152344 170.34375c-3.121094-3.121094-8.1875-3.121094-11.3125 0l-48 48c-3.121094 3.125-3.121094 8.1875 0 11.3125l18.648437 18.648438-125.3125 140.054687-18.023437-18.015625c-3.121094-3.121094-8.1875-3.121094-11.3125 0l-18.175782 18.175781-125.015624-132.359375 18.503906-18.503906c3.125-3.125 3.125-8.1875 0-11.3125l-48-48c-3.121094-3.121094-8.1875-3.121094-11.3125 0l-48 48c-3.121094 3.125-3.121094 8.1875 0 11.3125l48 48c3.125 3.121094 8.191406 3.121094 11.3125 0l18.175781-18.175781 125.015625 132.359375-18.503906 18.503906c-3.121094 3.125-3.121094 8.1875 0 11.3125l48 48c3.125 3.121094 8.191406 3.121094 11.3125 0l48-48c3.125-3.125 3.125-8.1875 0-11.3125l-18.648438-18.648438 125.3125-140.054687 18.023438 18.015625c3.125 3.121094 8.191406 3.121094 11.3125 0l48-48c3.125-3.125 3.125-8.1875 0-11.3125zm-373.65625 98.34375-36.6875-36.6875 36.6875-36.6875 36.6875 36.6875zm184 192-36.6875-36.6875 36.6875-36.6875 36.6875 36.6875zm184-200-36.6875-36.6875 36.6875-36.6875 36.6875 36.6875zm0 0" fill="url(#d)"/><path d="m232.496094 112h16v16h-16zm0 0" fill="url(#e)"/></svg>